<svg version="1.0" xmlns="http://www.w3.org/2000/svg"
 width="512.000000pt" height="512.000000pt" viewBox="0 0 512.000000 512.000000"
 preserveAspectRatio="xMidYMid meet">

<g transform="translate(0.000000,512.000000) scale(0.100000,-0.100000)"
fill="currentColor" stroke="none">
<path d="M2030 3663 c-652 -64 -1170 -530 -1299 -1170 -12 -55 -21 -119 -21
-141 0 -71 -2 -72 -104 -72 -67 0 -98 -4 -114 -16 -48 -33 -36 -56 199 -385
227 -317 242 -334 288 -310 18 10 420 562 449 618 17 31 15 50 -8 73 -17 17
-33 20 -115 20 l-95 0 0 38 c0 114 91 347 184 469 106 140 274 265 433 323
544 196 1120 -118 1260 -688 26 -104 24 -315 -4 -417 -97 -356 -380 -604 -746
-654 -51 -7 -390 -11 -956 -11 -838 0 -879 -1 -894 -18 -15 -16 -17 -49 -17
-248 0 -183 3 -234 14 -250 14 -19 45 -19 1735 -22 l1721 -2 0 -83 c0 -98 14
-127 62 -127 24 0 97 47 339 220 318 227 334 242 310 289 -10 18 -562 420
-618 449 -31 17 -46 15 -71 -8 -19 -18 -22 -31 -22 -110 l0 -90 -310 0 -310 0
56 85 c98 150 164 312 206 503 29 132 32 424 5 552 -54 254 -141 443 -292 635
-301 383 -791 595 -1265 548z m385 -148 c472 -97 847 -430 1000 -887 151 -454
38 -968 -292 -1318 -148 -157 -364 -295 -553 -352 l-75 -22 -947 -4 -948 -3 0
141 0 140 833 0 c513 0 865 4 917 10 306 38 561 195 729 451 71 108 116 216
143 349 26 123 21 332 -11 456 -59 236 -205 457 -400 605 -83 63 -263 152
-361 179 -249 68 -516 45 -747 -65 -121 -57 -192 -105 -282 -190 -204 -192
-324 -444 -338 -710 -7 -133 -4 -138 97 -145 l68 -5 -142 -197 c-77 -109 -145
-199 -149 -200 -5 -2 -73 87 -151 197 l-144 200 68 5 c37 3 74 11 82 18 11 9
18 41 23 110 27 375 177 686 447 928 181 162 425 277 678 319 107 18 344 13
455 -10z m1863 -2296 c108 -77 198 -143 199 -147 1 -4 -89 -71 -200 -149
l-202 -143 -5 61 c-4 45 -10 64 -24 75 -17 12 -117 14 -610 15 -462 0 -587 3
-572 12 114 71 207 139 269 197 l75 70 408 0 c405 0 408 0 431 22 18 17 23 32
23 75 0 29 3 53 6 53 3 0 94 -63 202 -141z"/>
</g>
</svg>